<?xml version="1.0" encoding="UTF-8"?>
<svg width="25px" height="10px" viewBox="0 0 25 10" version="1.1" xmlns="http://www.w3.org/2000/svg" xmlns:xlink="http://www.w3.org/1999/xlink">
    <!-- Generator: Sketch 42 (36781) - http://www.bohemiancoding.com/sketch -->
    <title>NHS_Lozenge_Black_Soild@1x</title>
    <desc>Created with Sketch.</desc>
    <defs></defs>
    <g id="NHS_Lozenge_Formats" stroke="none" stroke-width="1" fill="none" fill-rule="evenodd">
        <g id="Application" transform="translate(-2.000000, -9.000000)">
            <g id="NHS_Lozenge_Black_Soild" transform="translate(2.000000, 9.000000)">
                <polygon id="NHS_Lozenge_White_Background" fill="#FFFFFF" points="0 0 0 10 25 10 25 0"></polygon>
                <path d="M0,0 L25,0 L25,10 L0,10 L0,0 Z M23.5415429,2.78716385 L24.0650483,1.18431137 C23.5158908,0.931054017 22.5728385,0.827085208 21.5680186,0.827085208 C19.7801345,0.827085208 17.9382459,1.44989836 17.9382459,3.52560898 C17.9382459,5.79626112 21.1005427,5.31307274 21.1005427,6.60368556 C21.1005427,7.43443634 20.0400308,7.56139825 19.3636253,7.56139825 C18.6507669,7.56139825 17.7883836,7.37645373 17.3539855,7.10020327 L16.8426311,8.73737879 C17.554477,8.95597987 18.5228439,9.15292079 19.3636253,9.15292079 C21.2531053,9.15292079 23.3407139,8.57509414 23.3407139,6.3504282 C23.3407139,3.90582825 20.1784171,4.33303342 20.1784171,3.19037622 C20.1784171,2.54523643 20.8767619,2.41860775 21.7428579,2.41860775 C22.5468488,2.41860775 23.1213209,2.5918891 23.5415429,2.78716385 Z M13.9253794,9.01396248 L16.1068208,9.01396248 L17.7995221,0.965377054 L15.6174056,0.965377054 L14.9747529,4.04445333 L12.3943538,4.04445333 L13.0376816,0.965377054 L10.8548901,0.965377054 L9.16286385,9.01396248 L11.3449803,9.01396248 L12.0686396,5.56599687 L14.6490387,5.56599687 L13.9253794,9.01396248 Z M5.61747313,9.01396248 L8.32613274,9.01396248 L10.0505616,0.965377054 L7.99670573,0.965377054 L6.85282443,6.54703589 L6.83122266,6.54703589 L5.16012313,0.965377054 L2.44100016,0.965377054 L0.705095318,9.01396248 L2.75928876,9.01396248 L3.88933143,3.44463328 L3.914646,3.44463328 L5.61747313,9.01396248 Z" id="NHS_Lozenge_Black_Transparent" fill="#231F20"></path>
            </g>
        </g>
    </g>
</svg>