<?xml version="1.0" encoding="UTF-8"?>
<svg width="225px" height="60px" viewBox="0 0 225 60" version="1.1" xmlns="http://www.w3.org/2000/svg" xmlns:xlink="http://www.w3.org/1999/xlink">
    <!-- Generator: Sketch 44.1 (41455) - http://www.bohemiancoding.com/sketch -->
    <title>NHS_Primary_Care_Logo_White@1x</title>
    <desc>Created with Sketch.</desc>
    <defs></defs>
    <g id="NHS_Primary_Care_Logo_Formats" stroke="none" stroke-width="1" fill="none" fill-rule="evenodd">
        <g id="NHS_Primary_Care_Logo_White" transform="translate(-6.000000, 0.000000)">
            <text id="Providing-NHS-servic" font-family="FrutigerLTPro-Bold, Frutiger LT Pro" font-size="21" font-weight="bold" line-spacing="21.75" fill="#FFFFFF">
                <tspan x="1.688" y="54.9471436">Providing NHS services</tspan>
            </text>
            <g id="NHS_Lozenge_White_Soild" transform="translate(156.000000, 0.000000)">
                <polygon id="NHS_Lozenge_Blue_Background" fill="#005EB8" points="0 0.211852622 0 29.7881474 73 29.7881474 73 0.211852622"></polygon>
                <path d="M0,0 L74.0457863,0 L74.0457863,30 L0,30 L0,0 Z M69.7260822,8.36149155 L71.276617,3.55293412 C69.650105,2.79316205 66.8569429,2.48125562 63.8808357,2.48125562 C58.5854244,2.48125562 53.130061,4.34969509 53.130061,10.576827 C53.130061,17.3887834 62.4962511,15.9392182 62.4962511,19.8110567 C62.4962511,22.303309 59.3551934,22.6841947 57.3517945,22.6841947 C55.2404279,22.6841947 52.6861941,22.1293612 51.3995801,21.3006098 L49.8850345,26.2121364 C51.993402,26.8679396 54.8615415,27.4587624 57.3517945,27.4587624 C62.9481156,27.4587624 69.1312606,25.7252824 69.1312606,19.0512846 C69.1312606,11.7174848 59.7650705,12.9991003 59.7650705,9.57112866 C59.7650705,7.63570929 61.83345,7.25582325 64.3986804,7.25582325 C66.779966,7.25582325 68.4814556,7.7756673 69.7260822,8.36149155 Z M41.2446266,27.0418874 L47.7056883,27.0418874 L52.7191842,2.89613116 L46.2561232,2.89613116 L44.3526942,12.13336 L36.709987,12.13336 L38.6154154,2.89613116 L32.1503549,2.89613116 L27.1388583,27.0418874 L33.6019194,27.0418874 L35.7452764,16.6979906 L43.3879836,16.6979906 L41.2446266,27.0418874 Z M16.6380086,27.0418874 L24.6606018,27.0418874 L29.7680696,2.89613116 L23.6848945,2.89613116 L20.2969109,19.6411077 L20.2329301,19.6411077 L15.283415,2.89613116 L7.22983105,2.89613116 L2.08837349,27.0418874 L8.17254824,27.0418874 L11.5195441,10.3338998 L11.5945216,10.3338998 L16.6380086,27.0418874 Z" id="NHS_Lozenge_White_Transparent" fill="#FFFFFF"></path>
            </g>
        </g>
    </g>
</svg>