<?xml version="1.0" encoding="UTF-8"?>
<svg width="16px" height="16px" viewBox="0 0 16 16" version="1.1" xmlns="http://www.w3.org/2000/svg" xmlns:xlink="http://www.w3.org/1999/xlink">
    <!-- Generator: Sketch 42 (36781) - http://www.bohemiancoding.com/sketch -->
    <title>NHS_Favicon_Blue_Soild@1x</title>
    <desc>Created with Sketch.</desc>
    <defs></defs>
    <g id="NHS_Lozenge_Formats" stroke="none" stroke-width="1" fill="none" fill-rule="evenodd">
        <g id="Favicon">
            <g id="NHS_Favicon_Blue_Soild">
                <polygon id="NHS_Favicon_White_Background" fill="#FFFFFF" points="0 0 0 16 16 16 16 0"></polygon>
                <path d="M0,0 L16,0 L16,16 L0,16 L0,0 Z M15.0665877,6.78378489 L15.4016312,5.75795929 C15.0501703,5.59587458 14.4466168,5.52933454 13.8035321,5.52933454 C12.6592863,5.52933454 11.4804776,5.92793497 11.4804776,7.25638978 C11.4804776,8.70960717 13.5043476,8.40036661 13.5043476,9.22635882 C13.5043476,9.75803933 12.8256199,9.83929495 12.3927204,9.83929495 C11.936491,9.83929495 11.3845657,9.72093046 11.1065509,9.54413016 L10.7792841,10.5919225 C11.2348654,10.7318272 11.8546203,10.8578694 12.3927204,10.8578694 C13.6019876,10.8578694 14.9380571,10.4880603 14.9380571,9.06427411 C14.9380571,7.49973012 12.9141872,7.77314143 12.9141872,7.04184081 C12.9141872,6.62895134 13.3611278,6.54790898 13.9154293,6.54790898 C14.4299835,6.54790898 14.7976456,6.65880905 15.0665877,6.78378489 Z M8.91224294,10.7689361 L10.3083654,10.7689361 L11.3916943,5.61784132 L9.99513975,5.61784132 L9.58384202,7.58845017 L7.93238657,7.58845017 L8.34411634,5.61784132 L6.94712977,5.61784132 L5.86423295,10.7689361 L7.26078749,10.7689361 L7.72392948,8.56223805 L9.37538492,8.56223805 L8.91224294,10.7689361 Z M3.59518286,10.7689361 L5.32872503,10.7689361 L6.43235955,5.61784132 L5.11789174,5.61784132 L4.3858077,9.19010303 L4.37198257,9.19010303 L3.30247885,5.61784132 L1.56224013,5.61784132 L0.45126101,10.7689361 L1.76594483,10.7689361 L2.48917215,7.20456533 L2.50537348,7.20456533 L3.59518286,10.7689361 Z" id="NHS_Favicon_Blue_Transparent" fill="#005EB8"></path>
            </g>
        </g>
    </g>
</svg>